# xmcd
#
# Track frame offsets:
#	150
#	11792
#	35181
#	53767
#	70987
#	83726
#	99246
#	118596
#	139687
#	160801
#	179268
#	199863
#	217629
#	238309
#	255360
#	275108
#	296225
#	317373
#
# Disc length: 4565 seconds
#
# Revision: 1
# Processed by: cddbd v1.5.2PL0 Copyright (c) Steve Scherf et al.
# Submitted via: EasyCDDAExtractor 2010.6.0.0
#
DISCID=0411d312
DTITLE=Peter Koelewijn - Singles A's and Rarities Disc 3
DYEAR=2004
DGENRE=Rock and Roll
TTITLE0=Ich Hab 'ne Macke
TTITLE1=Klatsch Nur In Die Hände
TTITLE2=Alle Hände Hoch
TTITLE3=Connie
TTITLE4=Bonnie Brons
TTITLE5=Alleen Voor Mieke
TTITLE6=Lonnie (Engelse Versie)
TTITLE7=Angeline (Engelse Versie)
TTITLE8=Robbie (Engelse Versie)
TTITLE9=Tout Le Monde En Haut, Tout Le Monde En Bas
TTITLE10=Bonnie (Duitse Versie)
TTITLE11=Meine Disco Roller Braut
TTITLE12=Angeline (Duitse Versie)
TTITLE13=Conny (Engelse Versie)
TTITLE14=Prima Donna (Franse Versie)
TTITLE15=Angeline (Franse Versie)
TTITLE16=Robbie (Franse Versie)
TTITLE17=Rock Heroes: Rod Stewart
EXTD=
EXTT0=
EXTT1=
EXTT2=
EXTT3=
EXTT4=
EXTT5=
EXTT6=
EXTT7=
EXTT8=
EXTT9=
EXTT10=
EXTT11=
EXTT12=
EXTT13=
EXTT14=
EXTT15=
EXTT16=
EXTT17=
PLAYORDER=
